<?xml version="1.0" standalone="no"?>
<!DOCTYPE svg PUBLIC "-//W3C//DTD SVG 20010904//EN"
 "http://www.w3.org/TR/2001/REC-SVG-20010904/DTD/svg10.dtd">
<svg version="1.0" xmlns="http://www.w3.org/2000/svg"
 width="896.000000pt" height="896.000000pt" viewBox="0 0 896.000000 896.000000"
 preserveAspectRatio="xMidYMid meet">

<g transform="translate(0.000000,896.000000) scale(0.100000,-0.100000)"
fill="#000000" stroke="none">
<path d="M4350 7984 c-225 -188 -418 -345 -450 -367 -13 -9 -21 -17 -16 -17
19 0 214 152 390 304 235 203 251 216 259 216 5 0 48 -33 95 -73 137 -115 354
-286 432 -340 13 -10 13 -9 0 5 -27 28 -519 418 -527 418 -5 0 -87 -66 -183
-146z"/>
<path d="M4385 7894 l-30 -26 33 22 c17 12 32 23 32 26 0 7 -4 5 -35 -22z"/>
<path d="M4270 7814 c-76 -57 -109 -85 -80 -68 26 15 160 115 160 120 0 7 -4
5 -80 -52z"/>
<path d="M3674 7834 c7 -19 169 -214 174 -209 4 4 -168 225 -175 225 -3 0 -2
-7 1 -16z"/>
<path d="M5329 7748 c-34 -46 -76 -98 -93 -117 -22 -24 -25 -31 -10 -23 36 19
183 206 171 218 -3 3 -33 -32 -68 -78z"/>
<path d="M4790 7816 c0 -3 9 -10 20 -16 11 -6 20 -8 20 -6 0 3 -9 10 -20 16
-11 6 -20 8 -20 6z"/>
<path d="M1460 7806 c0 -15 41 -76 51 -76 5 0 9 -5 9 -11 0 -5 -4 -7 -10 -4
-6 4 -7 -2 -1 -17 8 -22 468 -936 525 -1043 15 -28 37 -82 50 -120 14 -41 29
-70 37 -70 8 -1 13 -6 12 -13 -2 -7 2 -12 8 -12 5 0 7 -4 4 -10 -3 -6 1 -7 9
-4 9 4 18 0 21 -8 5 -11 22 -14 68 -13 59 2 71 7 192 80 125 75 361 231 369
244 6 10 -26 33 -144 108 -58 36 -199 127 -314 201 -226 146 -311 193 -332
185 -8 -3 -14 1 -14 8 0 14 -196 220 -220 231 -8 4 -11 7 -5 7 5 1 -3 12 -18
27 -15 14 -32 22 -37 19 -6 -4 -7 1 -3 11 5 13 2 15 -15 9 -23 -7 -31 10 -9
18 11 5 -17 11 -35 8 -4 0 -5 6 -2 14 4 8 11 12 17 8 6 -4 7 -1 2 6 -4 8 -17
10 -34 7 -19 -5 -22 -4 -11 4 13 9 13 10 0 10 -13 0 -13 1 0 11 12 8 9 9 -12
5 -28 -6 -47 7 -27 20 8 5 9 3 4 -6 -5 -9 -4 -11 4 -6 6 4 9 12 5 17 -3 5 -10
7 -15 4 -5 -4 -9 -1 -9 5 0 6 -4 9 -8 6 -5 -3 -9 1 -9 9 0 8 5 11 11 8 6 -4
-13 20 -43 53 -30 32 -58 63 -63 69 -4 5 -8 5 -8 1z"/>
<path d="M3656 7734 c10 -17 31 -46 47 -65 l27 -34 -10 30 c-12 34 -25 52 -60
80 l-24 20 20 -31z"/>
<path d="M5095 7680 c10 -11 20 -20 23 -20 3 0 -3 9 -13 20 -10 11 -20 20 -23
20 -3 0 3 -9 13 -20z"/>
<path d="M4215 7482 c-171 -114 -428 -283 -570 -377 -546 -357 -680 -450 -684
-470 -2 -11 -8 -23 -15 -27 -7 -5 -6 -8 3 -8 11 0 10 -4 -5 -16 -10 -8 -14
-13 -7 -10 6 4 14 2 18 -4 3 -5 1 -10 -4 -10 -6 0 -11 -5 -11 -11 0 -5 5 -7
10 -4 6 3 10 -2 11 -12 0 -10 3 -13 6 -5 6 15 29 16 39 0 4 -6 3 -8 -3 -5 -6
4 -13 0 -17 -8 -3 -8 -2 -14 2 -13 14 3 42 -14 36 -23 -3 -5 -10 -7 -15 -4 -5
3 -6 -1 -3 -10 4 -9 9 -14 11 -11 2 2 18 0 34 -4 16 -5 27 -5 24 0 -2 4 1 13
9 19 10 9 13 7 12 -10 -1 -17 -39 -47 -151 -123 -166 -113 -602 -394 -736
-474 l-85 -52 -110 25 c-60 13 -135 27 -165 31 -51 6 -55 5 -65 -17 -6 -14
-10 -84 -9 -169 2 -80 -1 -299 -5 -488 -7 -287 -11 -347 -24 -367 -12 -18 -16
-50 -16 -125 0 -62 -4 -100 -10 -100 -6 0 -10 15 -10 33 0 17 -1 59 -3 92 -2
35 1 63 7 67 17 12 -7 9 -24 -2 -12 -8 -13 -12 -2 -19 11 -7 11 -9 0 -14 -13
-4 -39 -64 -83 -190 -9 -27 -19 -46 -22 -44 -2 3 28 99 67 215 76 227 86 293
51 312 -29 15 -38 12 -15 -5 18 -15 18 -15 0 -8 -14 5 -17 3 -11 -7 5 -8 4
-11 -3 -6 -6 3 -9 15 -7 27 3 14 -1 19 -12 17 -21 -4 -25 30 -5 42 14 8 14 9
2 10 -13 0 -13 2 0 11 12 9 12 10 -3 5 -10 -3 -22 -6 -25 -6 -4 0 0 -5 8 -10
21 -13 -4 -13 -33 0 -22 10 -22 10 0 -6 13 -9 23 -22 23 -28 0 -14 -44 -15
-57 -2 -5 5 -3 6 4 2 7 -4 21 -3 30 3 16 8 14 10 -9 16 -15 4 -32 4 -37 0 -7
-3 -8 0 -5 10 8 20 41 38 56 29 6 -4 8 -3 4 4 -3 5 -1 12 6 14 7 3 5 7 -6 11
-9 4 -15 3 -12 -2 3 -5 -4 -11 -15 -14 -12 -3 -18 -3 -15 0 3 4 0 13 -7 21
-10 13 -9 14 3 7 12 -6 12 -5 3 5 -8 8 -9 20 -3 36 9 22 8 23 -18 13 -18 -7
-28 -7 -30 0 -2 6 -8 9 -13 5 -5 -3 -14 -2 -21 2 -7 5 4 12 28 19 39 12 39 12
12 20 -16 4 -28 11 -28 16 0 12 17 11 25 -1 3 -5 10 -10 15 -10 10 0 7 27 -5
37 -4 4 -5 2 -1 -4 10 -17 0 -16 -29 3 -13 9 -29 13 -34 10 -5 -4 -12 -2 -15
3 -4 5 -2 12 4 16 6 4 8 10 5 15 -3 5 -1 11 4 14 5 4 13 1 17 -5 5 -8 3 -9 -6
-4 -8 5 -11 4 -7 -3 4 -5 16 -8 26 -5 30 8 5 28 -38 30 -25 2 -32 -1 -21 -7 8
-5 11 -10 5 -10 -16 0 -30 14 -30 30 0 8 -6 14 -12 13 -32 -7 -2 25 47 50 9 4
4 6 -13 3 -38 -5 -43 10 -10 29 25 14 25 15 4 9 -17 -4 -22 -2 -19 7 3 8 14
15 26 17 12 2 20 7 17 11 -2 5 6 18 20 31 13 12 21 28 18 36 -3 8 1 14 8 14 7
0 10 2 7 5 -3 3 -13 3 -22 -1 -13 -5 -14 -9 -5 -21 10 -11 8 -15 -9 -20 -12
-3 -20 -9 -17 -13 3 -4 -3 -14 -12 -21 -12 -10 -14 -10 -9 -1 4 6 3 12 -3 12
-5 0 -17 3 -27 7 -11 4 -15 3 -11 -4 4 -6 1 -14 -5 -16 -7 -3 -3 -6 10 -6 13
-1 21 -5 17 -11 -3 -5 -11 -7 -19 -4 -7 3 -13 -2 -13 -11 0 -8 7 -15 16 -15
14 -1 14 -2 0 -13 -17 -13 -20 -82 -5 -106 6 -9 5 -12 -1 -8 -6 4 -13 -2 -16
-13 -3 -11 -1 -23 4 -26 6 -4 6 -10 0 -17 -5 -7 -9 -28 -9 -47 1 -50 -22 -487
-27 -535 -3 -22 -9 -105 -15 -185 -5 -80 -14 -199 -19 -265 -6 -66 -15 -185
-21 -265 -24 -340 -51 -686 -66 -840 -8 -91 -13 -178 -10 -193 7 -36 268 -341
372 -434 41 -37 144 -117 227 -177 187 -134 465 -331 572 -405 192 -132 403
-286 440 -321 22 -20 162 -126 310 -235 149 -109 328 -241 398 -293 143 -106
147 -106 147 -15 0 28 5 55 10 58 12 7 11 8 450 -319 364 -271 393 -291 415
-282 8 3 104 71 212 151 523 384 597 436 617 433 18 -3 21 -11 24 -66 2 -47 6
-62 16 -59 7 3 48 32 92 65 131 99 594 440 720 530 41 29 74 57 74 62 0 5 57
50 128 99 70 50 132 94 137 99 6 4 74 53 153 108 79 54 196 136 260 181 64 45
187 129 272 187 85 58 167 116 182 128 16 13 51 41 79 63 68 53 372 409 379
443 3 15 -2 108 -12 207 -9 99 -24 259 -32 355 -9 96 -20 225 -26 285 -15 161
-19 212 -25 295 -3 41 -8 107 -12 145 -3 39 -7 83 -7 98 -1 15 -8 32 -16 37
-13 9 -13 10 0 10 12 0 14 15 12 85 l-3 85 -27 -5 c-15 -3 -20 -2 -12 2 21 9
39 35 33 50 -3 9 -11 7 -25 -7 -12 -11 -26 -16 -32 -12 -17 10 -48 13 -42 4 3
-4 -8 -7 -25 -6 -16 1 -29 -3 -29 -8 0 -6 9 -8 20 -5 11 3 18 1 14 -4 -3 -5
12 -9 33 -9 l38 0 -29 -15 c-16 -9 -32 -12 -35 -8 -3 4 -21 9 -40 10 -26 1
-31 -1 -20 -9 11 -7 9 -9 -8 -5 -13 3 -26 1 -29 -4 -3 -5 9 -9 26 -9 27 0 90
-24 90 -34 0 -3 -11 -3 -25 -2 -13 2 -22 -1 -19 -5 3 -5 1 -9 -5 -9 -5 0 -11
5 -13 12 -5 14 -58 2 -58 -13 0 -8 5 -7 15 1 19 16 30 6 30 -26 1 -26 -5 -30
-22 -13 -8 8 -13 7 -18 -2 -6 -8 -4 -10 5 -4 10 6 12 3 7 -14 -4 -15 0 -24 11
-28 9 -4 20 -11 23 -16 4 -5 15 -4 28 2 11 7 21 9 21 7 0 -11 -60 -36 -73 -30
-11 4 -15 -1 -13 -19 0 -14 5 -23 10 -19 5 3 6 -2 3 -12 -4 -10 -7 -20 -7 -22
0 -2 -4 -4 -10 -4 -5 0 -10 11 -10 25 0 14 -5 25 -11 25 -5 0 -8 3 -6 8 3 4
-2 14 -11 22 -14 13 -15 12 -8 -5 19 -45 15 -64 -14 -77 -16 -7 -26 -16 -24
-20 3 -5 -1 -11 -9 -14 -12 -4 -13 -12 -4 -40 8 -27 8 -40 -1 -55 -7 -10 -8
-19 -3 -19 5 0 8 -13 7 -30 -1 -28 -3 -30 -41 -30 -26 0 -35 3 -26 9 9 6 10
10 2 12 -7 3 -15 38 -20 82 l-7 77 43 0 c56 0 55 15 -1 29 l-44 11 -6 72 c-12
152 -26 539 -37 983 -6 290 -14 464 -21 472 -16 20 -95 15 -199 -12 -51 -13
-103 -25 -115 -25 -11 0 -95 45 -185 101 -242 149 -669 431 -669 441 0 5 3 8
8 6 4 -3 22 -10 39 -17 18 -7 30 -17 27 -22 -3 -5 -2 -9 1 -9 10 0 30 23 38
43 4 10 12 16 19 12 7 -4 6 -1 -3 7 -19 16 -33 78 -18 78 6 0 9 7 5 15 -3 8 3
19 12 25 15 10 15 11 0 6 -9 -2 -19 2 -22 10 -3 8 -1 14 5 14 6 0 7 5 3 12 -4
7 -3 8 5 4 6 -4 9 -12 6 -17 -7 -10 28 -13 38 -3 14 15 -13 39 -121 106 -64
40 -209 133 -322 208 -113 75 -274 181 -358 235 -248 162 -739 487 -842 559
-52 36 -104 66 -115 65 -11 0 -160 -93 -330 -207z m620 -872 c252 -168 428
-291 633 -442 28 -21 52 -42 52 -47 0 -4 -10 -19 -22 -33 -13 -14 -32 -36 -42
-49 -23 -27 -36 -9 -15 19 11 13 9 13 -9 -2 -22 -19 -22 -19 -22 3 0 18 -5 21
-26 17 -19 -4 -24 -1 -20 10 5 13 -12 20 -38 15 -5 -1 -6 5 -2 14 4 12 0 16
-17 15 -12 -1 -25 -2 -29 -1 -5 1 -10 0 -13 -1 -2 -2 -12 7 -20 20 -9 12 -24
22 -34 22 -9 0 -22 5 -29 12 -9 9 -12 7 -12 -9 0 -15 -6 -21 -19 -20 -12 1
-17 6 -14 15 5 11 7 11 15 0 8 -10 9 -10 6 1 -3 11 -22 14 -84 13 -43 -2 -87
-3 -97 -3 -9 0 -15 -4 -13 -8 3 -4 -1 -8 -9 -8 -11 0 -12 4 -4 13 7 8 7 14 -1
19 -5 3 -14 -4 -18 -16 -6 -16 -11 -19 -16 -10 -6 9 -11 9 -24 -1 -9 -7 -13
-8 -9 -2 4 7 -1 18 -10 25 -15 12 -16 12 -10 -3 3 -10 2 -18 -3 -18 -6 0 -10
10 -11 23 0 14 -3 17 -6 7 -7 -17 -29 -40 -38 -40 -3 0 -3 5 0 10 3 6 -1 10
-10 10 -10 0 -13 -5 -9 -12 6 -10 4 -10 -8 0 -9 7 -25 12 -35 10 -10 -2 -17 2
-16 9 3 13 -22 7 -45 -10 -9 -7 -11 -6 -7 5 5 12 0 14 -20 10 -16 -3 -33 2
-45 13 -11 10 -20 15 -20 10 0 -19 -29 19 -33 43 -2 15 -5 -137 -6 -338 -2
-201 -5 -358 -8 -350 -9 23 -32 42 -42 36 -5 -4 -12 0 -14 6 -3 8 -6 5 -6 -5
-1 -17 -2 -17 -17 -2 -14 13 -19 14 -25 3 -6 -10 -9 -8 -9 6 0 20 0 20 -15 0
-8 -11 -15 -14 -15 -6 0 6 -9 12 -21 12 -11 0 -17 -4 -14 -10 4 -6 -5 -9 -19
-8 -16 2 -26 9 -26 18 0 12 -2 12 -9 2 -6 -11 -11 -10 -25 3 -14 14 -17 14
-22 2 -6 -17 -40 -15 -37 1 2 7 -8 8 -27 2 -21 -6 -30 -5 -30 3 0 8 -3 9 -8 1
-10 -15 -42 -25 -42 -13 0 6 -6 6 -18 0 -10 -6 -24 -6 -32 -1 -8 5 -18 6 -22
4 -4 -3 -8 -2 -8 3 0 4 -27 8 -59 8 -33 0 -59 2 -58 5 1 3 -2 6 -8 8 -5 2 -12
-6 -15 -18 -4 -18 -17 -5 -70 72 -36 51 -101 148 -145 215 -43 67 -81 121 -83
118 -2 -2 4 -16 13 -32 l17 -28 -21 25 c-11 14 -19 30 -16 37 7 20 -23 67 -59
91 -38 26 -38 49 0 58 13 3 24 10 24 15 0 5 6 9 14 9 31 0 223 104 283 153 15
13 59 40 96 61 38 21 152 94 255 164 103 69 217 146 255 170 37 25 67 52 68
61 0 15 1 15 7 0 4 -9 138 -103 297 -209z m1405 -144 c0 -3 -4 -8 -10 -11 -5
-3 -10 -1 -10 4 0 6 5 11 10 11 6 0 10 -2 10 -4z m-890 -631 c-83 -124 -153
-225 -156 -225 -3 0 3 12 14 28 10 15 50 74 87 132 84 130 195 290 201 290 2
0 -64 -101 -146 -225z m-1643 30 c67 -101 81 -125 66 -110 -10 10 -122 177
-138 205 -20 37 17 -12 72 -95z m98 -151 c9 -15 12 -23 6 -20 -11 7 -35 46
-28 46 3 0 12 -12 22 -26z m-574 -65 c301 -230 542 -460 618 -589 52 -89 121
-199 209 -333 60 -91 74 -128 37 -97 -12 10 -43 10 -158 1 -78 -6 -199 -16
-269 -22 l-128 -11 -67 46 c-38 25 -203 144 -368 264 -256 185 -302 223 -312
252 -9 27 -12 30 -12 13 -1 -13 -5 -23 -9 -23 -14 0 -112 431 -112 492 0 16 3
18 14 9 10 -8 21 -8 41 -1 17 6 85 8 175 6 178 -6 256 11 242 52 -2 6 -2 12 1
12 3 0 47 -32 98 -71z m291 -51 c121 -163 263 -386 252 -397 -2 -3 -46 36 -97
85 -51 50 -145 137 -210 193 -64 56 -115 107 -111 112 3 5 9 7 14 4 12 -7 68
42 75 66 4 11 1 26 -5 34 -7 8 -10 15 -7 15 3 0 43 -51 89 -112z m374 -20 c85
-131 100 -155 87 -143 -6 6 -42 57 -80 115 -82 124 -86 130 -79 130 2 0 35
-46 72 -102z m1989 93 c-3 -6 5 -15 17 -22 16 -9 64 -10 178 -5 182 9 233 8
264 -4 17 -6 32 -3 55 11 17 10 34 19 38 19 8 0 -5 -154 -17 -205 -6 -22 -22
-94 -36 -160 -32 -151 -33 -157 -45 -149 -5 3 -17 -3 -27 -14 -19 -23 -691
-498 -737 -522 -27 -14 -51 -14 -210 -3 -360 25 -383 25 -411 7 -19 -13 -28
-14 -36 -6 -9 9 -5 19 15 40 15 15 27 33 27 40 0 6 15 22 34 34 35 23 84 95
182 265 31 54 77 124 102 156 75 96 569 527 604 527 5 0 7 -4 3 -9z m-711 -98
c-53 -83 -67 -103 -71 -103 -3 0 3 12 13 28 53 82 67 102 71 102 3 0 -3 -12
-13 -27z m341 -27 c-8 -18 -12 -44 -9 -57 14 -64 13 -66 -68 -145 -43 -42 -90
-83 -104 -91 -20 -10 -24 -10 -16 -1 5 7 22 36 38 63 28 52 166 265 170 265 2
0 -3 -15 -11 -34z m-427 -106 c-7 -10 -14 -17 -17 -15 -4 4 18 35 25 35 2 0
-1 -9 -8 -20z m-3607 -133 c-8 -8 -5 -15 11 -25 l23 -13 -25 7 c-14 3 -32 12
-40 20 -12 12 -11 14 8 14 15 0 21 4 16 12 -5 7 -3 8 5 3 9 -5 10 -10 2 -18z
m3519 3 c-6 -11 -13 -20 -16 -20 -2 0 0 9 6 20 6 11 13 20 16 20 2 0 0 -9 -6
-20z m-909 -27 c13 -16 12 -17 -3 -4 -17 13 -22 21 -14 21 2 0 10 -8 17 -17z
m873 -28 c-9 -14 -18 -25 -21 -25 -5 0 5 18 20 38 17 22 18 13 1 -13z m-839
-21 c9 -15 12 -23 6 -20 -11 7 -35 46 -28 46 3 0 12 -12 22 -26z m-2670 6 c3
-6 -1 -7 -9 -4 -18 7 -21 14 -7 14 6 0 13 -4 16 -10z m83 -26 c-1 -5 -9 -9
-16 -10 -10 -2 -11 1 -1 12 12 14 24 13 17 -2z m3392 -13 c-5 -11 -15 -23 -22
-27 -7 -5 -8 -2 -3 7 21 37 44 55 25 20z m-760 -32 c15 -28 5 -23 -15 7 -9 15
-12 23 -6 20 6 -4 16 -16 21 -27z m-2634 -17 c-4 -3 -14 2 -24 12 -16 18 -16
18 6 6 13 -6 21 -14 18 -18z m3351 -17 c-7 -14 -16 -25 -20 -25 -8 0 -2 14 16
38 15 19 16 14 4 -13z m-689 -20 c-3 -3 -9 2 -12 12 -6 14 -5 15 5 6 7 -7 10
-15 7 -18z m-2677 -3 c-7 -2 -18 1 -23 6 -8 8 -4 9 13 5 13 -4 18 -8 10 -11z
m3589 -27 c-7 -9 -15 -13 -17 -11 -7 7 7 26 19 26 6 0 6 -6 -2 -15z m-14 -53
c1 -6 -2 -10 -7 -6 -5 3 -9 0 -9 -6 0 -6 -4 -8 -10 -5 -5 3 -10 13 -10 21 0 9
5 12 11 8 8 -4 9 1 5 17 -7 23 -6 23 6 4 7 -11 13 -26 14 -33z m-3456 17 c12
-8 10 -9 -9 -4 -16 5 -21 4 -17 -4 5 -7 1 -8 -9 -4 -13 5 -14 7 -3 14 17 11
20 11 38 -2z m2509 -139 c75 -55 75 -59 1 -18 -35 20 -66 41 -68 47 -7 20 14
11 67 -29z m838 23 c2 -6 -22 -21 -54 -34 -32 -12 -78 -37 -103 -54 -58 -40
-83 -53 -46 -23 63 49 181 127 190 125 6 -2 11 -8 13 -14z m-623 -337 c83 -58
157 -106 165 -106 9 0 79 43 156 95 128 87 141 94 153 78 7 -10 10 -24 6 -33
-4 -8 -7 -23 -8 -33 -2 -17 -97 -81 -242 -164 l-42 -23 -88 45 c-169 86 -257
159 -267 221 -1 10 -6 25 -11 32 -13 22 14 5 178 -112z m-281 27 c-7 -2 -21
-2 -30 0 -10 3 -4 5 12 5 17 0 24 -2 18 -5z m57 -38 c0 -8 7 -15 15 -15 9 0
18 -7 21 -15 7 -17 34 -21 34 -5 0 37 41 15 265 -145 31 -22 56 -33 67 -29 10
3 77 41 149 85 72 43 140 79 150 79 10 0 19 6 19 14 0 22 63 47 101 40 39 -8
269 -156 446 -288 l123 -91 0 -47 c0 -27 2 -48 5 -48 3 0 37 16 76 36 48 24
75 32 81 26 6 -6 13 -71 16 -144 l5 -134 -46 -40 c-66 -58 -649 -473 -995
-707 -91 -62 -148 -95 -156 -90 -13 8 -218 150 -379 262 -236 165 -717 510
-765 548 -30 24 -58 43 -64 43 -6 0 -5 6 2 15 9 10 9 15 1 15 -7 0 -11 29 -11
84 0 96 5 116 29 115 10 0 11 -2 4 -6 -18 -7 -16 -33 1 -33 9 0 16 12 18 33 4
40 34 47 81 20 18 -11 51 -27 75 -36 l42 -17 0 58 1 57 122 88 c356 258 467
322 467 272z m3514 -24 c4 -5 -3 -7 -14 -4 -23 6 -26 13 -6 13 8 0 17 -4 20
-9z m53 3 c-3 -3 -12 -4 -19 -1 -8 3 -5 6 6 6 11 1 17 -2 13 -5z m47 -25 c-6
-11 -24 -2 -24 11 0 5 7 7 15 4 8 -4 12 -10 9 -15z m-4721 -151 c42 -33 77
-61 77 -63 0 -10 -269 182 -269 193 -1 12 37 -13 192 -130z m3195 123 c-1 -5
-34 -26 -73 -46 -78 -40 -77 -35 5 19 55 36 75 44 68 27z m1407 -18 c-20 -15
-20 -15 3 -10 12 3 20 1 16 -4 -3 -5 0 -9 7 -9 7 0 10 -2 7 -5 -3 -3 -18 -1
-34 5 -28 11 -28 12 -10 26 27 19 36 17 11 -3z m-41 -51 c3 -5 -1 -9 -9 -9 -8
0 -12 4 -9 9 3 4 7 8 9 8 2 0 6 -4 9 -8z m-4881 -71 l37 -23 -4 -592 c-2 -325
-2 -603 1 -618 4 -22 41 -53 182 -151 200 -141 519 -370 601 -432 59 -45 454
-329 740 -533 96 -68 194 -135 218 -149 l42 -25 85 58 c81 57 455 324 920 659
121 87 276 198 345 247 296 210 358 254 382 274 l26 20 5 620 5 619 36 24 c20
13 40 21 44 17 4 -4 9 -308 12 -674 4 -555 3 -669 -9 -677 -7 -5 -41 -31 -75
-57 -55 -42 -194 -143 -486 -353 -58 -42 -113 -82 -123 -90 -9 -8 -21 -15 -26
-15 -5 0 -22 -11 -38 -24 -15 -13 -42 -30 -60 -39 -17 -9 -47 -32 -67 -50 -20
-19 -37 -32 -40 -30 -10 10 -183 -98 -322 -202 -22 -16 -58 -43 -80 -58 -21
-15 -87 -63 -146 -105 -59 -42 -172 -123 -252 -180 l-144 -103 -104 74 c-56
40 -200 143 -319 229 -118 85 -233 167 -255 181 -21 14 -70 48 -109 76 -115
83 -284 195 -295 196 -3 0 -28 16 -55 36 -28 20 -70 48 -95 63 -73 44 -83 50
-98 63 -13 12 -234 173 -416 303 -50 36 -104 71 -119 79 -17 9 -26 20 -22 29
3 8 8 285 11 616 5 590 9 730 22 724 4 -2 24 -14 45 -27z m-1146 -108 c-3 -10
-5 -4 -5 12 0 17 2 24 5 18 2 -7 2 -21 0 -30z m6003 12 c0 -8 -4 -15 -8 -15
-5 0 -9 7 -9 15 0 8 4 15 9 15 4 0 8 -7 8 -15z m-6 -40 c3 -8 1 -15 -4 -15 -6
0 -10 7 -10 15 0 8 2 15 4 15 2 0 6 -7 10 -15z m-5829 -5 c-3 -5 -17 -10 -30
-10 -13 0 -27 5 -30 10 -4 6 8 10 30 10 22 0 34 -4 30 -10z m-102 -27 c-7 -2
-21 -2 -30 0 -10 3 -4 5 12 5 17 0 24 -2 18 -5z m4132 -77 c2 -12 6 -63 9
-113 3 -70 1 -93 -8 -93 -7 0 -13 6 -14 13 0 6 -4 40 -7 74 -4 37 -3 75 3 93
10 26 8 31 -16 50 l-27 20 28 -12 c15 -6 29 -21 32 -32z m1700 -45 c3 -6 -3
-14 -12 -20 -17 -9 -17 -10 -1 -16 18 -7 15 -25 -3 -25 -6 0 -7 5 -4 10 3 6 2
10 -3 10 -5 0 -14 11 -20 25 -11 23 -10 25 13 25 13 0 26 -4 30 -9z m-15 -84
c11 -5 9 -6 -4 -4 -11 1 -21 9 -23 17 -3 10 -2 11 4 4 4 -6 15 -14 23 -17z
m-3902 -338 c92 -62 246 -169 342 -237 96 -69 207 -147 245 -174 381 -264 380
-264 413 -249 35 16 210 133 434 289 287 200 354 246 536 369 164 110 173 115
187 97 30 -40 19 -69 -50 -128 -35 -30 -95 -76 -132 -102 -38 -26 -106 -75
-153 -109 -350 -253 -649 -460 -762 -529 l-78 -47 -37 20 c-21 10 -105 66
-188 123 -82 57 -217 151 -300 208 -176 122 -462 326 -591 422 -83 61 -104 83
-104 107 0 19 43 62 57 57 7 -3 89 -56 181 -117z m4170 84 c-21 -2 -55 -2 -75
0 -21 2 -4 4 37 4 41 0 58 -2 38 -4z m-223 -73 c49 -7 49 -7 10 -8 -22 -1 -58
3 -80 7 -34 8 -36 9 -10 9 17 0 53 -3 80 -8z m95 -4 c0 -2 -7 -6 -15 -10 -8
-3 -15 -1 -15 4 0 6 7 10 15 10 8 0 15 -2 15 -4z m-4343 -50 c27 -18 80 -51
118 -73 39 -22 124 -78 190 -124 331 -234 710 -495 902 -623 l72 -48 38 23
c54 33 250 169 598 414 407 286 485 340 520 357 47 23 175 52 185 42 13 -13
24 -114 13 -114 -5 0 -45 -28 -88 -61 -44 -34 -132 -98 -195 -144 -63 -45
-236 -169 -385 -276 -306 -221 -619 -441 -652 -458 -12 -6 -33 -11 -46 -11
-38 0 -518 337 -1025 719 -150 113 -286 213 -303 221 -27 13 -29 19 -24 50 12
73 27 140 31 140 2 0 25 -15 51 -34z m4583 -290 c0 -3 -4 -8 -10 -11 -5 -3
-10 -1 -10 4 0 6 5 11 10 11 6 0 10 -2 10 -4z m-5656 -212 c23 -22 20 -31 -15
-50 -27 -14 -30 -18 -17 -30 12 -12 24 -13 67 -3 l52 11 77 -59 c42 -33 154
-114 247 -180 596 -421 992 -718 1174 -882 145 -131 194 -170 309 -254 219
-156 387 -257 430 -257 13 0 53 10 89 22 99 31 267 149 588 413 160 131 465
364 655 500 91 65 262 189 380 275 264 192 614 423 637 418 9 -2 21 -16 26
-33 10 -28 37 -65 37 -49 0 5 5 3 12 -4 8 -8 17 -8 32 0 31 16 106 79 106 88
0 5 -26 14 -57 20 -32 6 -71 13 -87 17 -28 5 -28 5 -9 25 20 19 20 19 81 -6
34 -14 75 -26 91 -26 20 0 30 -6 34 -20 4 -16 -10 -33 -61 -78 -104 -89 -714
-533 -1387 -1008 -351 -248 -424 -301 -850 -619 -126 -95 -240 -178 -253 -184
-37 -20 -70 -5 -190 82 -358 261 -471 343 -917 662 -746 535 -722 517 -1177
868 -308 238 -308 238 -308 263 0 28 6 32 105 66 44 15 81 27 82 27 1 1 9 -6
17 -15z m4326 -81 c-1 -8 -332 -251 -539 -395 -53 -38 -125 -88 -161 -113 -36
-25 -94 -66 -130 -91 l-65 -46 50 46 c28 25 53 46 56 46 3 0 81 56 172 124 91
68 226 166 299 217 73 51 171 121 217 156 81 60 101 72 101 56z m-3730 -138
c102 -74 229 -168 283 -208 53 -39 117 -85 140 -102 51 -36 118 -90 97 -79
-13 7 -123 85 -508 362 -48 34 -117 83 -154 109 -38 25 -68 48 -68 49 0 17 52
-15 210 -131z m596 -436 c3 -6 -5 -3 -20 6 -14 10 -26 19 -26 22 0 7 39 -17
46 -28z m680 -1045 c18 -14 18 -14 -6 -3 -31 14 -36 19 -24 19 6 0 19 -7 30
-16z m1331 -206 c-3 -8 -6 -5 -6 6 -1 11 2 17 5 13 3 -3 4 -12 1 -19z"/>
<path d="M4982 4669 c2 -6 8 -10 13 -10 5 0 11 4 13 10 2 6 -4 11 -13 11 -9 0
-15 -5 -13 -11z"/>
<path d="M4013 7629 c-43 -30 -58 -48 -25 -30 21 12 79 60 72 60 -3 0 -24 -13
-47 -30z"/>
<path d="M3934 7568 l-19 -23 23 19 c21 18 27 26 19 26 -2 0 -12 -10 -23 -22z"/>
<path d="M3889 7533 c-13 -16 -12 -17 4 -4 9 7 17 15 17 17 0 8 -8 3 -21 -13z"/>
<path d="M7090 7254 c0 -7 -17 -15 -37 -19 -50 -9 -72 -21 -261 -142 -89 -58
-160 -109 -157 -113 3 -5 0 -12 -6 -16 -8 -4 -9 -3 -5 4 4 7 5 12 2 12 -6 0
-192 -121 -249 -163 -18 -12 -35 -22 -39 -22 -11 0 -68 -45 -68 -54 0 -4 30
-29 68 -54 428 -290 424 -287 462 -281 19 4 43 11 53 16 12 6 17 5 17 -4 1 -8
6 -6 15 6 8 10 19 15 26 10 7 -4 10 -3 6 3 -4 6 8 22 26 36 21 16 39 43 51 78
11 30 61 140 113 246 51 106 93 196 93 200 0 4 9 19 20 33 15 19 16 28 7 39
-9 11 -9 13 0 8 7 -4 17 5 26 23 9 16 11 30 6 30 -5 0 -9 5 -9 11 0 5 6 7 13
3 6 -4 8 -3 4 1 -7 9 -28 15 -54 17 -7 1 -15 8 -17 15 -3 8 -1 11 4 8 6 -3 10
-1 10 5 0 7 -7 9 -16 6 -17 -6 -36 9 -47 37 -3 9 -12 17 -19 17 -10 0 -10 -2
-1 -8 16 -10 13 -49 -4 -49 -6 0 -10 4 -7 9 3 4 0 8 -6 8 -7 0 -10 6 -7 13 3
8 1 20 -4 28 -5 8 -9 9 -9 3z m-165 -100 c-26 -20 -55 -36 -55 -30 0 5 63 46
70 46 3 -1 -4 -8 -15 -16z m315 -48 c0 -10 -30 0 -34 11 -4 11 -1 11 14 3 11
-6 20 -12 20 -14z"/>
<path d="M6310 6655 c0 -11 62 -66 93 -82 19 -10 54 -29 78 -42 54 -31 83 -36
49 -10 -106 81 -220 151 -220 134z"/>
<path d="M2910 6559 c0 -11 4 -18 10 -14 5 3 7 12 3 20 -7 21 -13 19 -13 -6z"/>
<path d="M6457 6399 c-6 -21 14 -36 33 -24 15 10 12 23 -9 34 -15 9 -20 7 -24
-10z"/>
<path d="M1393 5715 c0 -8 4 -12 9 -9 4 3 8 9 8 15 0 5 -4 9 -8 9 -5 0 -9 -7
-9 -15z"/>
<path d="M1393 5638 c2 -7 8 -13 13 -13 5 0 16 -4 24 -9 8 -5 12 -6 8 -1 -4 4
-2 15 5 24 10 14 10 14 -5 3 -11 -9 -18 -10 -23 -2 -9 14 -28 13 -22 -2z"/>
<path d="M1390 5590 c8 -5 20 -10 25 -10 6 0 3 5 -5 10 -8 5 -19 10 -25 10 -5
0 -3 -5 5 -10z"/>
<path d="M1526 5522 c-3 -4 4 -9 15 -9 23 -2 25 3 4 10 -8 4 -16 3 -19 -1z"/>
<path d="M1456 5512 c-3 -5 1 -9 9 -9 8 0 12 4 9 9 -3 4 -7 8 -9 8 -2 0 -6 -4
-9 -8z"/>
<path d="M1496 5478 c3 -5 10 -6 15 -3 13 9 11 12 -6 12 -8 0 -12 -4 -9 -9z"/>
<path d="M1408 5443 c-9 -12 -10 -15 0 -9 6 4 12 3 12 -3 0 -5 18 -8 40 -6 22
2 42 -1 45 -6 4 -5 11 -9 18 -9 6 0 2 7 -9 15 -19 14 -19 14 1 15 17 0 17 2 5
10 -8 5 -24 9 -35 9 l-20 0 20 -9 c29 -13 -6 -13 -39 -1 -19 8 -28 6 -38 -6z"/>
<path d="M1540 5260 c-8 -5 -10 -10 -5 -10 6 0 17 5 25 10 8 5 11 10 5 10 -5
0 -17 -5 -25 -10z"/>
<path d="M1643 5085 c0 -6 12 -10 26 -10 14 1 32 -3 39 -8 7 -6 12 -6 12 1 0
5 -8 13 -17 18 -27 12 -60 11 -60 -1z"/>
<path d="M7721 4817 c2 -1 13 -9 24 -17 19 -14 19 -14 6 3 -7 9 -18 17 -24 17
-6 0 -8 -1 -6 -3z"/>
<path d="M7708 4763 c7 -3 16 -2 19 1 4 3 -2 6 -13 5 -11 0 -14 -3 -6 -6z"/>
<path d="M7637 4709 c7 -7 15 -10 18 -7 3 3 -2 9 -12 12 -14 6 -15 5 -6 -5z"/>
<path d="M7716 4711 c-4 -7 -5 -15 -2 -18 9 -9 19 4 14 18 -4 11 -6 11 -12 0z"/>
<path d="M7754 4692 c7 -12 4 -13 -57 -17 -15 -1 -33 -8 -40 -15 -10 -10 -8
-11 8 -2 23 12 59 -3 49 -20 -4 -7 -3 -8 4 -4 6 4 9 13 5 21 -3 10 1 15 15 15
25 0 37 16 21 26 -8 4 -9 3 -5 -4z"/>
</g>
</svg>
